<mxfile host="app.diagrams.net" modified="2023-10-03T21:09:54.585Z" agent="Mozilla/5.0 (X11; Linux x86_64) AppleWebKit/537.36 (KHTML, like Gecko) Chrome/116.0.0.0 Safari/537.36" version="22.0.2" etag="tNd_jm6j0sQ62BlRddJL" type="github">
  <diagram name="Page-1" id="b3BWHuneYl6iIMnbU8mR">
    <mxGraphModel>
      <root>
        <mxCell id="0" />
        <mxCell id="1" parent="0" />
      </root>
    </mxGraphModel>
  </diagram>
</mxfile>
